<svg width="358" height="142" xmlns="http://www.w3.org/2000/svg" xmlns:xlink="http://www.w3.org/1999/xlink" xml:space="preserve" overflow="hidden"><g transform="translate(-2699 -1242)"><g><path d="M2702 1313C2702 1276 2732 1246 2769 1246L2989 1246C3026 1246 3056 1276 3056 1313 3056 1350 3026 1380 2989 1380L2769 1380C2732 1380 2702 1350 2702 1313Z" fill="#52BBB1" fill-rule="evenodd" fill-opacity="1"/><text fill="#3B3B3B" fill-opacity="1" font-family="Noto Sans SC,Noto Sans SC_MSFontService,sans-serif" font-style="normal" font-variant="normal" font-weight="400" font-stretch="normal" font-size="48" text-anchor="start" direction="ltr" writing-mode="lr-tb" unicode-bidi="normal" text-decoration="none" transform="matrix(1 0 0 1 2870.19 1330)">中文版</text><g><g><g><path d="M0 17.25C0 12.4928 3.86778 8.62501 8.62501 8.62501L34.5 8.62501 40.9688 8.62501 43.1251 8.62501 77.6251 8.62501C82.3823 8.62501 86.2501 12.4928 86.2501 17.25L86.2501 51.7501C86.2501 56.5073 82.3823 60.3751 77.6251 60.3751L43.1251 60.3751 40.9688 60.3751 34.5 60.3751 8.62501 60.3751C3.86778 60.3751 0 56.5073 0 51.7501L0 17.25ZM43.1251 17.25 43.1251 51.7501 77.6251 51.7501 77.6251 17.25 43.1251 17.25ZM24.0287 23.7053C23.5975 22.735 22.6272 22.1016 21.5625 22.1016 20.4979 22.1016 19.5276 22.735 19.0963 23.7053L10.4713 43.1116C9.86486 44.4727 10.4848 46.063 11.8459 46.6694 13.2071 47.2758 14.7973 46.6559 15.4037 45.2948L16.6031 42.586 26.5219 42.586 27.7213 45.2948C28.3278 46.6559 29.918 47.2624 31.2791 46.6694 32.6403 46.0764 33.2467 44.4727 32.6538 43.1116L24.0287 23.7053ZM21.5625 31.4274 24.1231 37.1954 19.002 37.1954 21.5625 31.4274ZM60.3751 22.1016C61.8575 22.1016 63.0704 23.3145 63.0704 24.7969L63.0704 25.336 69.0001 25.336 71.1563 25.336C72.6388 25.336 73.8517 26.5489 73.8517 28.0313 73.8517 29.5137 72.6388 30.7266 71.1563 30.7266L70.8868 30.7266 70.6712 31.3331C69.4718 34.6213 67.6524 37.6131 65.3345 40.1467 65.4558 40.2276 65.577 40.295 65.6983 40.3624L68.2454 41.8852C69.5257 42.6534 69.93 44.311 69.1753 45.5778 68.4206 46.8446 66.7495 47.2624 65.4827 46.5077L62.9356 44.9848C62.3292 44.621 61.7497 44.2436 61.1702 43.8393 59.7417 44.8501 58.2188 45.726 56.5882 46.4538L56.103 46.6694C54.7419 47.2758 53.1516 46.6559 52.5452 45.2948 51.9387 43.9337 52.5587 42.3434 53.9198 41.737L54.405 41.5214C55.2675 41.1305 56.103 40.6993 56.8981 40.2006L55.254 38.5565C54.2028 37.5053 54.2028 35.7938 55.254 34.7426 56.3052 33.6915 58.0167 33.6915 59.0679 34.7426L61.0354 36.7102 61.1028 36.7776C62.7739 35.0122 64.1351 32.9637 65.1188 30.7131L60.3751 30.7131 50.6719 30.7131C49.1895 30.7131 47.9766 29.5002 47.9766 28.0178 47.9766 26.5354 49.1895 25.3225 50.6719 25.3225L57.6798 25.3225 57.6798 24.7834C57.6798 23.301 58.8927 22.0881 60.3751 22.0881Z" fill="#3B3B3B" fill-rule="nonzero" fill-opacity="1" transform="matrix(1.00869 0 0 1 2751 1278)"/></g></g></g></g></g></svg>