<svg width="559" height="138" xmlns="http://www.w3.org/2000/svg" xmlns:xlink="http://www.w3.org/1999/xlink" xml:space="preserve" overflow="hidden"><g transform="translate(-1155 -1026)"><g><path d="M1156 1097C1156 1060 1186 1030 1223 1030L1644 1030C1681 1030 1711 1060 1711 1097 1711 1134 1681 1164 1644 1164L1223 1164C1186 1164 1156 1134 1156 1097Z" fill="#52BBB1" fill-rule="evenodd" fill-opacity="0.901961"/><g><g><g><path d="M1280.5 1065.5 1231.5 1065.5C1227.65 1065.5 1224.5 1068.65 1224.5 1072.5L1224.5 1121.5C1224.5 1125.35 1227.65 1128.5 1231.5 1128.5L1280.5 1128.5C1284.35 1128.5 1287.5 1125.35 1287.5 1121.5L1287.5 1072.5C1287.5 1068.65 1284.35 1065.5 1280.5 1065.5M1247.25 1095.25C1247.25 1098.05 1244.8 1100.5 1242 1100.5L1238.5 1100.5 1238.5 1107.5 1233.25 1107.5 1233.25 1086.5 1242 1086.5C1244.8 1086.5 1247.25 1088.95 1247.25 1091.75L1247.25 1095.25M1264.75 1102.25C1264.75 1105.05 1262.3 1107.5 1259.5 1107.5L1250.75 1107.5 1250.75 1086.5 1259.5 1086.5C1262.3 1086.5 1264.75 1088.95 1264.75 1091.75L1264.75 1102.25M1278.75 1091.75 1273.5 1091.75 1273.5 1095.25 1278.75 1095.25 1278.75 1100.5 1273.5 1100.5 1273.5 1107.5 1268.25 1107.5 1268.25 1086.5 1278.75 1086.5 1278.75 1091.75M1256 1091.75 1259.5 1091.75 1259.5 1102.25 1256 1102.25 1256 1091.75M1238.5 1091.75 1242 1091.75 1242 1095.25 1238.5 1095.25 1238.5 1091.75Z" fill="#3B3B3B" fill-rule="nonzero" fill-opacity="1"/></g></g></g><text fill="#3B3B3B" fill-opacity="1" font-family="Noto Sans SC,Noto Sans SC_MSFontService,sans-serif" font-style="normal" font-variant="normal" font-weight="400" font-stretch="normal" font-size="48" text-anchor="start" direction="ltr" writing-mode="lr-tb" unicode-bidi="normal" text-decoration="none" transform="matrix(1 0 0 1 1322.28 1114)">Download PDF</text></g></g></svg>