<svg width="559" height="138" xmlns="http://www.w3.org/2000/svg" xmlns:xlink="http://www.w3.org/1999/xlink" xml:space="preserve" overflow="hidden"><g transform="translate(-1155 -829)"><g><path d="M1156 897C1156 859.997 1186 830 1223 830L1644 830C1681 830 1711 859.997 1711 897L1711 897C1711 934.003 1681 964 1644 964L1223 964C1186 964 1156 934.003 1156 897Z" fill="#52BBB1" fill-rule="evenodd" fill-opacity="0.901961"/><text fill="#3B3B3B" fill-opacity="1" font-family="Noto Sans SC,Noto Sans SC_MSFontService,sans-serif" font-style="normal" font-variant="normal" font-weight="400" font-stretch="normal" font-size="48" text-anchor="start" direction="ltr" writing-mode="lr-tb" unicode-bidi="normal" text-decoration="none" transform="matrix(1 0 0 1 1334.88 914)">Start Reading</text><g><g><g><path d="M1275.25 900.155C1278.02 900.155 1280.95 900.435 1284 900.995L1284 906.245C1281.83 905.685 1278.89 905.405 1275.25 905.405 1268.6 905.405 1263.39 906.56 1259.5 908.87L1259.5 902.955C1263.6 901.1 1268.85 900.155 1275.25 900.155M1259.5 893.61C1264.02 891.755 1269.27 890.845 1275.25 890.845 1278.02 890.845 1280.95 891.09 1284 891.65L1284 896.9C1281.83 896.34 1278.89 896.06 1275.25 896.06 1268.6 896.06 1263.39 897.25 1259.5 899.525M1275.25 886.75C1268.6 886.75 1263.39 887.87 1259.5 890.25L1259.5 884.44C1263.81 882.48 1269.06 881.5 1275.25 881.5 1278.02 881.5 1280.95 881.78 1284 882.305L1284 887.73C1281.41 887.065 1278.44 886.75 1275.25 886.75M1287.5 914.75 1287.5 874.5C1283.86 873.345 1279.77 872.75 1275.25 872.75 1268.08 872.75 1261.67 874.5 1256 878L1256 918.25C1261.67 914.75 1268.08 913 1275.25 913 1279.42 913 1283.51 913.56 1287.5 914.75M1275.25 865.75C1283.47 865.75 1289.92 867.5 1294.5 871L1294.5 921.96C1294.5 922.38 1294.32 922.8 1293.94 923.185 1293.56 923.5 1293.14 923.78 1292.75 923.78 1292.36 923.78 1292.08 923.71 1291.88 923.605 1287.4 921.19 1281.83 920 1275.25 920 1268.08 920 1261.67 921.75 1256 925.25 1251.31 921.75 1244.91 920 1236.75 920 1230.94 920 1225.38 921.26 1220.13 923.745 1220.02 923.78 1219.88 923.78 1219.71 923.85 1219.57 923.885 1219.43 923.92 1219.25 923.92 1218.87 923.92 1218.45 923.78 1218.06 923.5 1217.71 923.189 1217.51 922.744 1217.5 922.275L1217.5 871C1222.19 867.5 1228.63 865.75 1236.75 865.75 1244.91 865.75 1251.31 867.5 1256 871 1260.69 867.5 1267.1 865.75 1275.25 865.75Z" fill="#3B3B3B" fill-rule="nonzero" fill-opacity="1"/></g></g></g></g></g></svg>