<svg width="358" height="142" xmlns="http://www.w3.org/2000/svg" xmlns:xlink="http://www.w3.org/1999/xlink" xml:space="preserve" overflow="hidden"><g transform="translate(-2699 -838)"><g><path d="M2702 907C2702 869.997 2732 840 2769 840L2989 840C3026 840 3056 869.997 3056 907 3056 944.003 3026 974 2989 974L2769 974C2732 974 2702 944.003 2702 907Z" fill="#52BBB1" fill-rule="evenodd" fill-opacity="1"/><text fill="#3B3B3B" fill-opacity="1" font-family="Noto Sans SC,Noto Sans SC_MSFontService,sans-serif" font-style="normal" font-variant="normal" font-weight="400" font-stretch="normal" font-size="48" text-anchor="start" direction="ltr" writing-mode="lr-tb" unicode-bidi="normal" text-decoration="none" transform="matrix(1 0 0 1 2894.18 924)">PDF</text><g><g><g><path d="M2779 882.125C2779 877.644 2782.64 874 2787.12 874L2807.44 874 2807.44 890.25C2807.44 892.497 2809.25 894.313 2811.5 894.313L2827.75 894.313 2827.75 912.594 2801.34 912.594C2796.86 912.594 2793.22 916.237 2793.22 920.719L2793.22 939 2787.12 939C2782.64 939 2779 935.357 2779 930.875L2779 882.125ZM2827.75 890.25 2811.5 890.25 2811.5 874 2827.75 890.25ZM2801.34 918.688 2805.41 918.688C2809.33 918.688 2812.52 921.874 2812.52 925.797 2812.52 929.72 2809.33 932.906 2805.41 932.906L2803.37 932.906 2803.37 936.969C2803.37 938.086 2802.46 939 2801.34 939 2800.23 939 2799.31 938.086 2799.31 936.969L2799.31 930.875 2799.31 920.719C2799.31 919.602 2800.23 918.688 2801.34 918.688ZM2805.41 928.844C2807.09 928.844 2808.45 927.486 2808.45 925.797 2808.45 924.109 2807.09 922.75 2805.41 922.75L2803.37 922.75 2803.37 928.844 2805.41 928.844ZM2817.59 918.688 2821.66 918.688C2825.02 918.688 2827.75 921.417 2827.75 924.781L2827.75 932.906C2827.75 936.271 2825.02 939 2821.66 939L2817.59 939C2816.48 939 2815.56 938.086 2815.56 936.969L2815.56 920.719C2815.56 919.602 2816.48 918.688 2817.59 918.688ZM2821.66 934.938C2822.77 934.938 2823.69 934.024 2823.69 932.906L2823.69 924.781C2823.69 923.664 2822.77 922.75 2821.66 922.75L2819.62 922.75 2819.62 934.938 2821.66 934.938ZM2831.81 920.719C2831.81 919.602 2832.73 918.688 2833.84 918.688L2839.94 918.688C2841.05 918.688 2841.97 919.602 2841.97 920.719 2841.97 921.836 2841.05 922.75 2839.94 922.75L2835.87 922.75 2835.87 926.813 2839.94 926.813C2841.05 926.813 2841.97 927.727 2841.97 928.844 2841.97 929.961 2841.05 930.875 2839.94 930.875L2835.87 930.875 2835.87 936.969C2835.87 938.086 2834.96 939 2833.84 939 2832.73 939 2831.81 938.086 2831.81 936.969L2831.81 928.844 2831.81 920.719Z" fill="#3B3B3B" fill-rule="nonzero" fill-opacity="1"/></g></g></g></g></g></svg>