<svg width="358" height="142" xmlns="http://www.w3.org/2000/svg" xmlns:xlink="http://www.w3.org/1999/xlink" xml:space="preserve" overflow="hidden"><g transform="translate(-3437 -838)"><g><path d="M3438 907C3438 869.997 3468 840 3505 840L3726 840C3763 840 3793 869.997 3793 907L3793 907C3793 944.004 3763 974.001 3726 974.001L3505 974C3468 974 3438 944.003 3438 907Z" fill="#55AEA6" fill-rule="evenodd" fill-opacity="1"/><text fill="#FFFFFF" fill-opacity="1" font-family="Noto Sans SC,Noto Sans SC_MSFontService,sans-serif" font-style="normal" font-variant="normal" font-weight="400" font-stretch="normal" font-size="48" text-anchor="start" direction="ltr" writing-mode="lr-tb" unicode-bidi="normal" text-decoration="none" transform="matrix(1 0 0 1 3630.75 924)">PDF</text><g><g><g><path d="M3515 882.125C3515 877.644 3518.64 874 3523.12 874L3543.44 874 3543.44 890.25C3543.44 892.497 3545.25 894.313 3547.5 894.313L3563.75 894.313 3563.75 912.594 3537.34 912.594C3532.86 912.594 3529.22 916.237 3529.22 920.719L3529.22 939 3523.12 939C3518.64 939 3515 935.357 3515 930.875L3515 882.125ZM3563.75 890.25 3547.5 890.25 3547.5 874 3563.75 890.25ZM3537.34 918.688 3541.41 918.688C3545.33 918.688 3548.52 921.874 3548.52 925.797 3548.52 929.72 3545.33 932.906 3541.41 932.906L3539.38 932.906 3539.38 936.969C3539.38 938.086 3538.46 939 3537.34 939 3536.23 939 3535.31 938.086 3535.31 936.969L3535.31 930.875 3535.31 920.719C3535.31 919.602 3536.23 918.688 3537.34 918.688ZM3541.41 928.844C3543.09 928.844 3544.45 927.486 3544.45 925.797 3544.45 924.109 3543.09 922.75 3541.41 922.75L3539.38 922.75 3539.38 928.844 3541.41 928.844ZM3553.59 918.688 3557.66 918.688C3561.02 918.688 3563.75 921.417 3563.75 924.781L3563.75 932.906C3563.75 936.271 3561.02 939 3557.66 939L3553.59 939C3552.48 939 3551.56 938.086 3551.56 936.969L3551.56 920.719C3551.56 919.602 3552.48 918.688 3553.59 918.688ZM3557.66 934.938C3558.77 934.938 3559.69 934.024 3559.69 932.906L3559.69 924.781C3559.69 923.664 3558.77 922.75 3557.66 922.75L3555.62 922.75 3555.62 934.938 3557.66 934.938ZM3567.81 920.719C3567.81 919.602 3568.73 918.688 3569.84 918.688L3575.94 918.688C3577.05 918.688 3577.97 919.602 3577.97 920.719 3577.97 921.836 3577.05 922.75 3575.94 922.75L3571.88 922.75 3571.88 926.813 3575.94 926.813C3577.05 926.813 3577.97 927.727 3577.97 928.844 3577.97 929.961 3577.05 930.875 3575.94 930.875L3571.88 930.875 3571.88 936.969C3571.88 938.086 3570.96 939 3569.84 939 3568.73 939 3567.81 938.086 3567.81 936.969L3567.81 928.844 3567.81 920.719Z" fill="#FFFFFF" fill-rule="nonzero" fill-opacity="1"/></g></g></g></g></g></svg>