<svg width="358" height="142" xmlns="http://www.w3.org/2000/svg" xmlns:xlink="http://www.w3.org/1999/xlink" xml:space="preserve" overflow="hidden"><g transform="translate(-3437 -1242)"><g><path d="M3438 1313C3438 1276 3468 1246 3505 1246L3726 1246C3763 1246 3793 1276 3793 1313L3793 1313C3793 1350 3763 1380 3726 1380L3505 1380C3468 1380 3438 1350 3438 1313Z" fill="#55AEA6" fill-rule="evenodd" fill-opacity="1"/><text fill="#FFFFFF" fill-opacity="1" font-family="Noto Sans SC,Noto Sans SC_MSFontService,sans-serif" font-style="normal" font-variant="normal" font-weight="400" font-stretch="normal" font-size="48" text-anchor="start" direction="ltr" writing-mode="lr-tb" unicode-bidi="normal" text-decoration="none" transform="matrix(1 0 0 1 3606.76 1330)">中文版</text><g><g><g><path d="M0 17.2C0 12.4566 3.85656 8.59999 8.59999 8.59999L34.4 8.59999 40.85 8.59999 43 8.59999 77.3999 8.59999C82.1434 8.59999 85.9999 12.4566 85.9999 17.2L85.9999 51.6C85.9999 56.3434 82.1434 60.2 77.3999 60.2L43 60.2 40.85 60.2 34.4 60.2 8.59999 60.2C3.85656 60.2 0 56.3434 0 51.6L0 17.2ZM43 17.2 43 51.6 77.3999 51.6 77.3999 17.2 43 17.2ZM23.959 23.6365C23.529 22.669 22.5615 22.0375 21.5 22.0375 20.4384 22.0375 19.4709 22.669 19.0409 23.6365L10.4409 42.9865C9.83624 44.3437 10.4544 45.9293 11.8116 46.534 13.1687 47.1387 14.7544 46.5206 15.3591 45.1634L16.555 42.4625 26.445 42.4625 27.6409 45.1634C28.2456 46.5206 29.8312 47.1253 31.1884 46.534 32.5456 45.9428 33.1503 44.3437 32.559 42.9865L23.959 23.6365ZM21.5 31.3362 24.0531 37.0875 18.9469 37.0875 21.5 31.3362ZM60.2 22.0375C61.6781 22.0375 62.8875 23.2469 62.8875 24.725L62.8875 25.2625 68.7999 25.2625 70.95 25.2625C72.4281 25.2625 73.6374 26.4719 73.6374 27.95 73.6374 29.4281 72.4281 30.6375 70.95 30.6375L70.6812 30.6375 70.4662 31.2422C69.2703 34.5209 67.4562 37.504 65.145 40.0303 65.2659 40.1109 65.3868 40.1781 65.5078 40.2453L68.0474 41.7637C69.324 42.5297 69.7271 44.1825 68.9746 45.4456 68.2221 46.7087 66.5559 47.1253 65.2928 46.3728L62.7531 44.8543C62.1484 44.4915 61.5706 44.1153 60.9928 43.7122 59.5684 44.72 58.05 45.5934 56.424 46.319L55.9403 46.534C54.5831 47.1387 52.9975 46.5206 52.3928 45.1634 51.7881 43.8062 52.4062 42.2206 53.7634 41.6159L54.2472 41.4009C55.1071 41.0112 55.9403 40.5812 56.7331 40.084L55.0937 38.4447C54.0456 37.3965 54.0456 35.69 55.0937 34.6418 56.1418 33.5937 57.8484 33.5937 58.8965 34.6418L60.8584 36.6037 60.9256 36.6709C62.5918 34.9106 63.949 32.8681 64.93 30.624L60.2 30.624 50.525 30.624C49.0468 30.624 47.8375 29.4147 47.8375 27.9365 47.8375 26.4584 49.0468 25.249 50.525 25.249L57.5125 25.249 57.5125 24.7115C57.5125 23.2334 58.7218 22.024 60.2 22.024Z" fill="#FFFFFF" fill-rule="nonzero" fill-opacity="1" transform="matrix(1 0 0 1.00291 3488 1278)"/></g></g></g></g></g></svg>