<svg width="358" height="142" xmlns="http://www.w3.org/2000/svg" xmlns:xlink="http://www.w3.org/1999/xlink" xml:space="preserve" overflow="hidden"><defs><clipPath id="clip0"><rect x="2765" y="672" width="81" height="65"/></clipPath><clipPath id="clip1"><rect x="2765" y="672" width="81" height="65"/></clipPath><clipPath id="clip2"><rect x="2765" y="672" width="81" height="65"/></clipPath></defs><g transform="translate(-2699 -632)"><g><path d="M2702 704C2702 666.997 2732 637 2769 637L2989 637C3026 637 3056 666.997 3056 704 3056 741.003 3026 771 2989 771L2769 771C2732 771 2702 741.003 2702 704Z" fill="#52BBB1" fill-rule="evenodd" fill-opacity="1"/><text fill="#3B3B3B" fill-opacity="1" font-family="Noto Sans SC,Noto Sans SC_MSFontService,sans-serif" font-style="normal" font-variant="normal" font-weight="400" font-stretch="normal" font-size="48" text-anchor="start" direction="ltr" writing-mode="lr-tb" unicode-bidi="normal" text-decoration="none" transform="matrix(1 0 0 1 2889.59 721)">Web</text><g clip-path="url(#clip0)"><g clip-path="url(#clip1)"><g clip-path="url(#clip2)"><path d="M16.2 0C11.7323 0 8.09998 3.63233 8.09998 8.09998L8.09998 36.4499 2.42999 36.4499C1.08843 36.4499 0 37.5383 0 38.8799 0 44.2461 4.35374 48.5999 9.71997 48.5999L40.4999 48.5999 40.4999 36.4499 16.2 36.4499 16.2 8.09998 56.6998 8.09998 56.6998 12.15 64.7998 12.15 64.7998 8.09998C64.7998 3.63233 61.1675 0 56.6998 0L16.2 0ZM64.7998 16.2 50.6249 16.2C47.271 16.2 44.5499 18.921 44.5499 22.2749L44.5499 58.7248C44.5499 62.0787 47.271 64.7998 50.6249 64.7998L74.9248 64.7998C78.2787 64.7998 80.9998 62.0787 80.9998 58.7248L80.9998 32.3999 68.8498 32.3999C66.6097 32.3999 64.7998 30.5901 64.7998 28.3499L64.7998 16.2ZM68.8498 16.2 68.8498 28.3499 80.9998 28.3499 68.8498 16.2Z" fill="#3B3B3B" fill-rule="nonzero" fill-opacity="1" transform="matrix(1 0 0 1.00309 2765 672)"/></g></g></g></g></g></svg>