<svg width="358" height="142" xmlns="http://www.w3.org/2000/svg" xmlns:xlink="http://www.w3.org/1999/xlink" xml:space="preserve" overflow="hidden"><defs><clipPath id="clip0"><rect x="3501" y="672" width="82" height="65"/></clipPath><clipPath id="clip1"><rect x="3501" y="672" width="82" height="65"/></clipPath><clipPath id="clip2"><rect x="3501" y="672" width="82" height="65"/></clipPath></defs><g transform="translate(-3437 -632)"><g><path d="M3438 704C3438 666.997 3468 637 3505 637L3726 637C3763 637 3793 666.997 3793 704L3793 704C3793 741.003 3763 771 3726 771L3505 771C3468 771 3438 741.003 3438 704Z" fill="#55AEA6" fill-rule="evenodd" fill-opacity="1"/><text fill="#FFFFFF" fill-opacity="1" font-family="Noto Sans SC,Noto Sans SC_MSFontService,sans-serif" font-style="normal" font-variant="normal" font-weight="400" font-stretch="normal" font-size="48" text-anchor="start" direction="ltr" writing-mode="lr-tb" unicode-bidi="normal" text-decoration="none" transform="matrix(1 0 0 1 3626.16 721)">Web</text><g clip-path="url(#clip0)"><g clip-path="url(#clip1)"><g clip-path="url(#clip2)"><path d="M16.25 0C11.7685 0 8.125 3.64355 8.125 8.125L8.125 36.5625 2.4375 36.5625C1.0918 36.5625 0 37.6543 0 39 0 44.3828 4.36719 48.75 9.75 48.75L40.625 48.75 40.625 36.5625 16.25 36.5625 16.25 8.125 56.875 8.125 56.875 12.1875 65 12.1875 65 8.125C65 3.64355 61.3564 0 56.875 0L16.25 0ZM65 16.25 50.7812 16.25C47.417 16.25 44.6875 18.9795 44.6875 22.3437L44.6875 58.9062C44.6875 62.2705 47.417 65 50.7812 65L75.1562 65C78.5205 65 81.25 62.2705 81.25 58.9062L81.25 32.5 69.0625 32.5C66.8154 32.5 65 30.6846 65 28.4375L65 16.25ZM69.0625 16.25 69.0625 28.4375 81.25 28.4375 69.0625 16.25Z" fill="#FFFFFF" fill-rule="nonzero" fill-opacity="1" transform="matrix(1.00923 0 0 1 3501 672)"/></g></g></g></g></g></svg>