<svg width="458" height="142" xmlns="http://www.w3.org/2000/svg" xmlns:xlink="http://www.w3.org/1999/xlink" xml:space="preserve" overflow="hidden"><g transform="translate(-1952 -1242)"><g><path d="M1954 1313C1954 1276 1984 1246 2021 1246L2342 1246C2379 1246 2409 1276 2409 1313L2409 1313C2409 1350 2379 1380 2342 1380L2021 1380C1984 1380 1954 1350 1954 1313Z" fill="#52BBB1" fill-rule="evenodd" fill-opacity="1"/><text fill="#FFFFFF" fill-opacity="1" font-family="Noto Sans SC,Noto Sans SC_MSFontService,sans-serif" font-style="normal" font-variant="normal" font-weight="400" font-stretch="normal" font-size="48" text-anchor="start" direction="ltr" writing-mode="lr-tb" unicode-bidi="normal" text-decoration="none" transform="matrix(1 0 0 1 2123.23 1330)">English Ed.</text><g><g><g><path d="M0 17.2001C0 12.4566 3.85658 8.60003 8.60003 8.60003L34.4001 8.60003 40.8501 8.60003 43.0001 8.60003 77.4003 8.60003C82.1437 8.60003 86.0003 12.4566 86.0003 17.2001L86.0003 51.6002C86.0003 56.3436 82.1437 60.2002 77.4003 60.2002L43.0001 60.2002 40.8501 60.2002 34.4001 60.2002 8.60003 60.2002C3.85658 60.2002 0 56.3436 0 51.6002L0 17.2001ZM43.0001 17.2001 43.0001 51.6002 77.4003 51.6002 77.4003 17.2001 43.0001 17.2001ZM23.9591 23.6366C23.5291 22.6691 22.5616 22.0376 21.5001 22.0376 20.4385 22.0376 19.471 22.6691 19.041 23.6366L10.441 42.9867C9.83628 44.3439 10.4544 45.9295 11.8116 46.5342 13.1688 47.1389 14.7544 46.5208 15.3591 45.1636L16.5551 42.4626 26.4451 42.4626 27.641 45.1636C28.2457 46.5208 29.8314 47.1255 31.1885 46.5342 32.5457 45.943 33.1504 44.3439 32.5592 42.9867L23.9591 23.6366ZM21.5001 31.3364 24.0532 37.0876 18.9469 37.0876 21.5001 31.3364ZM60.2002 22.0376C61.6783 22.0376 62.8877 23.247 62.8877 24.7251L62.8877 25.2626 68.8002 25.2626 70.9502 25.2626C72.4284 25.2626 73.6378 26.472 73.6378 27.9501 73.6378 29.4282 72.4284 30.6376 70.9502 30.6376L70.6815 30.6376 70.4665 31.2423C69.2706 34.5211 67.4565 37.5042 65.1452 40.0305 65.2662 40.1111 65.3871 40.1783 65.508 40.2455L68.0477 41.7639C69.3243 42.5298 69.7274 44.1827 68.9749 45.4458 68.2224 46.7089 66.5562 47.1255 65.293 46.373L62.7533 44.8545C62.1487 44.4917 61.5708 44.1155 60.993 43.7123 59.5686 44.7202 58.0502 45.5936 56.4243 46.3192L55.9405 46.5342C54.5833 47.1389 52.9977 46.5208 52.393 45.1636 51.7883 43.8064 52.4064 42.2208 53.7636 41.6161L54.2474 41.4011C55.1074 41.0114 55.9405 40.5814 56.7333 40.0842L55.0939 38.4448C54.0458 37.3967 54.0458 35.6901 55.0939 34.642 56.1421 33.5939 57.8486 33.5939 58.8968 34.642L60.8587 36.6039 60.9258 36.6711C62.5921 34.9107 63.9493 32.8682 64.9302 30.6242L60.2002 30.6242 50.5252 30.6242C49.047 30.6242 47.8377 29.4148 47.8377 27.9367 47.8377 26.4585 49.047 25.2491 50.5252 25.2491L57.5127 25.2491 57.5127 24.7116C57.5127 23.2335 58.7221 22.0241 60.2002 22.0241Z" fill="#FFFFFF" fill-rule="nonzero" fill-opacity="1" transform="matrix(1 0 0 1.0029 2008 1278)"/></g></g></g></g></g></svg>