<svg width="463" height="142" xmlns="http://www.w3.org/2000/svg" xmlns:xlink="http://www.w3.org/1999/xlink" xml:space="preserve" overflow="hidden"><g transform="translate(-2502 -825)"><g><path d="M2506.5 896.5C2506.5 859.497 2536.5 829.5 2573.5 829.5L2894.5 829.5C2931.5 829.5 2961.5 859.497 2961.5 896.5 2961.5 933.503 2931.5 963.5 2894.5 963.5L2573.5 963.5C2536.5 963.5 2506.5 933.503 2506.5 896.5Z" stroke="#52BBB1" stroke-width="4.58333" stroke-linecap="butt" stroke-linejoin="miter" stroke-miterlimit="8" stroke-opacity="1" fill="none" fill-rule="evenodd"/><text fill="#52BBB1" fill-opacity="1" font-family="Noto Sans SC Medium,Noto Sans SC Medium_MSFontService,sans-serif" font-style="normal" font-variant="normal" font-weight="500" font-stretch="normal" font-size="48" text-anchor="start" direction="ltr" writing-mode="lr-tb" unicode-bidi="normal" text-decoration="none" transform="matrix(1 0 0 1 2689.62 913)">在线阅读</text><g><g><g><path d="M2625.25 899.155C2628.01 899.155 2630.95 899.435 2634 899.995L2634 905.245C2631.83 904.685 2628.89 904.405 2625.25 904.405 2618.6 904.405 2613.39 905.56 2609.5 907.87L2609.5 901.955C2613.59 900.1 2618.84 899.155 2625.25 899.155M2609.5 892.61C2614.01 890.755 2619.26 889.845 2625.25 889.845 2628.01 889.845 2630.95 890.09 2634 890.65L2634 895.9C2631.83 895.34 2628.89 895.06 2625.25 895.06 2618.6 895.06 2613.39 896.25 2609.5 898.525M2625.25 885.75C2618.6 885.75 2613.39 886.87 2609.5 889.25L2609.5 883.44C2613.8 881.48 2619.05 880.5 2625.25 880.5 2628.01 880.5 2630.95 880.78 2634 881.305L2634 886.73C2631.41 886.065 2628.43 885.75 2625.25 885.75M2637.5 913.75 2637.5 873.5C2633.86 872.345 2629.76 871.75 2625.25 871.75 2618.07 871.75 2611.67 873.5 2606 877L2606 917.25C2611.67 913.75 2618.07 912 2625.25 912 2629.41 912 2633.51 912.56 2637.5 913.75M2625.25 864.75C2633.47 864.75 2639.91 866.5 2644.5 870L2644.5 920.96C2644.5 921.38 2644.32 921.8 2643.94 922.185 2643.55 922.5 2643.13 922.78 2642.75 922.78 2642.36 922.78 2642.08 922.71 2641.88 922.605 2637.39 920.19 2631.83 919 2625.25 919 2618.07 919 2611.67 920.75 2606 924.25 2601.31 920.75 2594.91 919 2586.75 919 2580.94 919 2575.38 920.26 2570.12 922.745 2570.02 922.78 2569.88 922.78 2569.71 922.85 2569.56 922.885 2569.43 922.92 2569.25 922.92 2568.86 922.92 2568.45 922.78 2568.06 922.5 2567.71 922.189 2567.51 921.744 2567.5 921.275L2567.5 870C2572.19 866.5 2578.63 864.75 2586.75 864.75 2594.91 864.75 2601.31 866.5 2606 870 2610.69 866.5 2617.09 864.75 2625.25 864.75Z" fill="#52BBB1" fill-rule="nonzero" fill-opacity="1"/></g></g></g></g></g></svg>