<svg width="458" height="142" xmlns="http://www.w3.org/2000/svg" xmlns:xlink="http://www.w3.org/1999/xlink" xml:space="preserve" overflow="hidden"><defs><clipPath id="clip0"><rect x="1801" y="825" width="458" height="142"/></clipPath><clipPath id="clip1"><rect x="1801" y="825" width="458" height="142"/></clipPath></defs><g clip-path="url(#clip0)" transform="translate(-1801 -825)"><g clip-path="url(#clip1)"><path d="M1804 896C1804 858.997 1834 829 1871 829L2192 829C2229 829 2259 858.997 2259 896L2259 896C2259 933.003 2229 963 2192 963L1871 963C1834 963 1804 933.003 1804 896Z" fill="#52BBB1" fill-rule="evenodd" fill-opacity="0.901961"/><text fill="#3B3B3B" fill-opacity="1" font-family="Noto Sans SC Medium,Noto Sans SC Medium_MSFontService,sans-serif" font-style="normal" font-variant="normal" font-weight="500" font-stretch="normal" font-size="48" text-anchor="start" direction="ltr" writing-mode="lr-tb" unicode-bidi="normal" text-decoration="none" transform="matrix(1 0 0 1 1987.51 913)">在线阅读</text><g><g><g><path d="M1923.25 899.155C1926.02 899.155 1928.95 899.435 1932 899.995L1932 905.245C1929.83 904.685 1926.89 904.405 1923.25 904.405 1916.6 904.405 1911.39 905.56 1907.5 907.87L1907.5 901.955C1911.6 900.1 1916.85 899.155 1923.25 899.155M1907.5 892.61C1912.02 890.755 1917.27 889.845 1923.25 889.845 1926.02 889.845 1928.95 890.09 1932 890.65L1932 895.9C1929.83 895.34 1926.89 895.06 1923.25 895.06 1916.6 895.06 1911.39 896.25 1907.5 898.525M1923.25 885.75C1916.6 885.75 1911.39 886.87 1907.5 889.25L1907.5 883.44C1911.81 881.48 1917.06 880.5 1923.25 880.5 1926.02 880.5 1928.95 880.78 1932 881.305L1932 886.73C1929.41 886.065 1926.44 885.75 1923.25 885.75M1935.5 913.75 1935.5 873.5C1931.86 872.345 1927.77 871.75 1923.25 871.75 1916.08 871.75 1909.67 873.5 1904 877L1904 917.25C1909.67 913.75 1916.08 912 1923.25 912 1927.42 912 1931.51 912.56 1935.5 913.75M1923.25 864.75C1931.47 864.75 1937.92 866.5 1942.5 870L1942.5 920.96C1942.5 921.38 1942.32 921.8 1941.94 922.185 1941.56 922.5 1941.14 922.78 1940.75 922.78 1940.36 922.78 1940.08 922.71 1939.88 922.605 1935.4 920.19 1929.83 919 1923.25 919 1916.08 919 1909.67 920.75 1904 924.25 1899.31 920.75 1892.91 919 1884.75 919 1878.94 919 1873.38 920.26 1868.13 922.745 1868.02 922.78 1867.88 922.78 1867.71 922.85 1867.57 922.885 1867.43 922.92 1867.25 922.92 1866.87 922.92 1866.45 922.78 1866.06 922.5 1865.71 922.189 1865.51 921.744 1865.5 921.275L1865.5 870C1870.19 866.5 1876.63 864.75 1884.75 864.75 1892.91 864.75 1899.31 866.5 1904 870 1908.69 866.5 1915.1 864.75 1923.25 864.75Z" fill="#3B3B3B" fill-rule="nonzero" fill-opacity="1"/></g></g></g></g></g></svg>