<svg width="458" height="142" xmlns="http://www.w3.org/2000/svg" xmlns:xlink="http://www.w3.org/1999/xlink" xml:space="preserve" overflow="hidden"><g transform="translate(-1223 -838)"><g><path d="M1227 907C1227 869.997 1257 840 1294 840L1614 840C1651 840 1681 869.997 1681 907L1681 907C1681 944.004 1651 974.001 1614 974.001L1294 974C1257 974 1227 944.003 1227 907Z" fill="#52BBB1" fill-rule="evenodd" fill-opacity="1"/><text fill="#3B3B3B" fill-opacity="1" font-family="Noto Sans SC,Noto Sans SC_MSFontService,sans-serif" font-style="normal" font-variant="normal" font-weight="400" font-stretch="normal" font-size="48" text-anchor="start" direction="ltr" writing-mode="lr-tb" unicode-bidi="normal" text-decoration="none" transform="matrix(1 0 0 1 1407.98 924)">下载</text><text fill="#3B3B3B" fill-opacity="1" font-family="Noto Sans SC,Noto Sans SC_MSFontService,sans-serif" font-style="normal" font-variant="normal" font-weight="400" font-stretch="normal" font-size="48" text-anchor="start" direction="ltr" writing-mode="lr-tb" unicode-bidi="normal" text-decoration="none" transform="matrix(1 0 0 1 1515.12 924)">PDF</text><g><g><g><path d="M1307 882.125C1307 877.644 1310.64 874 1315.12 874L1335.44 874 1335.44 890.25C1335.44 892.497 1337.25 894.313 1339.5 894.313L1355.75 894.313 1355.75 912.594 1329.34 912.594C1324.86 912.594 1321.22 916.237 1321.22 920.719L1321.22 939 1315.12 939C1310.64 939 1307 935.357 1307 930.875L1307 882.125ZM1355.75 890.25 1339.5 890.25 1339.5 874 1355.75 890.25ZM1329.34 918.688 1333.41 918.688C1337.33 918.688 1340.52 921.874 1340.52 925.797 1340.52 929.72 1337.33 932.906 1333.41 932.906L1331.37 932.906 1331.37 936.969C1331.37 938.086 1330.46 939 1329.34 939 1328.23 939 1327.31 938.086 1327.31 936.969L1327.31 930.875 1327.31 920.719C1327.31 919.602 1328.23 918.688 1329.34 918.688ZM1333.41 928.844C1335.09 928.844 1336.45 927.486 1336.45 925.797 1336.45 924.109 1335.09 922.75 1333.41 922.75L1331.37 922.75 1331.37 928.844 1333.41 928.844ZM1345.59 918.688 1349.66 918.688C1353.02 918.688 1355.75 921.417 1355.75 924.781L1355.75 932.906C1355.75 936.271 1353.02 939 1349.66 939L1345.59 939C1344.48 939 1343.56 938.086 1343.56 936.969L1343.56 920.719C1343.56 919.602 1344.48 918.688 1345.59 918.688ZM1349.66 934.938C1350.77 934.938 1351.69 934.024 1351.69 932.906L1351.69 924.781C1351.69 923.664 1350.77 922.75 1349.66 922.75L1347.62 922.75 1347.62 934.938 1349.66 934.938ZM1359.81 920.719C1359.81 919.602 1360.73 918.688 1361.84 918.688L1367.94 918.688C1369.05 918.688 1369.97 919.602 1369.97 920.719 1369.97 921.836 1369.05 922.75 1367.94 922.75L1363.87 922.75 1363.87 926.813 1367.94 926.813C1369.05 926.813 1369.97 927.727 1369.97 928.844 1369.97 929.961 1369.05 930.875 1367.94 930.875L1363.87 930.875 1363.87 936.969C1363.87 938.086 1362.96 939 1361.84 939 1360.73 939 1359.81 938.086 1359.81 936.969L1359.81 928.844 1359.81 920.719Z" fill="#3B3B3B" fill-rule="nonzero" fill-opacity="1"/></g></g></g></g></g></svg>