<svg width="463" height="142" xmlns="http://www.w3.org/2000/svg" xmlns:xlink="http://www.w3.org/1999/xlink" xml:space="preserve" overflow="hidden"><g transform="translate(-2493 -825)"><g><path d="M2497 896C2497 858.997 2527 829 2564 829L2885 829C2922 829 2952 858.997 2952 896L2952 896C2952 933.003 2922 963 2885 963L2564 963C2527 963 2497 933.003 2497 896Z" fill="#52BBB1" fill-rule="evenodd" fill-opacity="0.901961"/><text fill="#FFFFFF" fill-opacity="1" font-family="Noto Sans SC Medium,Noto Sans SC Medium_MSFontService,sans-serif" font-style="normal" font-variant="normal" font-weight="500" font-stretch="normal" font-size="48" text-anchor="start" direction="ltr" writing-mode="lr-tb" unicode-bidi="normal" text-decoration="none" transform="matrix(1 0 0 1 2680.99 912)">在线阅读</text><g><g><g><path d="M16.2 0C11.7324 0 8.10001 3.63235 8.10001 8.10001L8.10001 36.4501 2.43 36.4501C1.08844 36.4501 0 37.5385 0 38.8801 0 44.2463 4.35376 48.6001 9.72002 48.6001L40.5001 48.6001 40.5001 36.4501 16.2 36.4501 16.2 8.10001 56.7001 8.10001 56.7001 12.15 64.8001 12.15 64.8001 8.10001C64.8001 3.63235 61.1678 0 56.7001 0L16.2 0ZM64.8001 16.2 50.6251 16.2C47.2712 16.2 44.5501 18.9211 44.5501 22.275L44.5501 58.7251C44.5501 62.079 47.2712 64.8001 50.6251 64.8001L74.9251 64.8001C78.279 64.8001 81.0001 62.079 81.0001 58.7251L81.0001 32.4001 68.8501 32.4001C66.6099 32.4001 64.8001 30.5902 64.8001 28.35L64.8001 16.2ZM68.8501 16.2 68.8501 28.35 81.0001 28.35 68.8501 16.2Z" fill="#FFFFFF" fill-rule="nonzero" fill-opacity="1" transform="matrix(1 0 0 1.00308 2564 865)"/></g></g></g></g></g></svg>