<svg width="458" height="138" xmlns="http://www.w3.org/2000/svg" xmlns:xlink="http://www.w3.org/1999/xlink" xml:space="preserve" overflow="hidden"><defs><clipPath id="clip0"><rect x="1801" y="1026" width="458" height="138"/></clipPath><clipPath id="clip1"><rect x="1801" y="1026" width="458" height="138"/></clipPath></defs><g clip-path="url(#clip0)" transform="translate(-1801 -1026)"><g clip-path="url(#clip1)"><path d="M1804 1095C1804 1058 1834 1028 1871 1028L2192 1028C2229 1028 2259 1058 2259 1095L2259 1095C2259 1132 2229 1162 2192 1162L1871 1162C1834 1162 1804 1132 1804 1095Z" fill="#52BBB1" fill-rule="evenodd" fill-opacity="0.901961"/><g><g><g><path d="M66.4999 10.5 17.5 10.5C13.65 10.5 10.5 13.65 10.5 17.5L10.5 66.4999C10.5 70.3499 13.65 73.4999 17.5 73.4999L66.4999 73.4999C70.3499 73.4999 73.4999 70.3499 73.4999 66.4999L73.4999 17.5C73.4999 13.65 70.3499 10.5 66.4999 10.5M33.2499 40.2499C33.2499 43.0499 30.8 45.4999 28 45.4999L24.5 45.4999 24.5 52.4999 19.25 52.4999 19.25 31.5 28 31.5C30.8 31.5 33.2499 33.9499 33.2499 36.7499L33.2499 40.2499M50.7499 47.2499C50.7499 50.0499 48.2999 52.4999 45.4999 52.4999L36.7499 52.4999 36.7499 31.5 45.4999 31.5C48.2999 31.5 50.7499 33.9499 50.7499 36.7499L50.7499 47.2499M64.7499 36.7499 59.4999 36.7499 59.4999 40.2499 64.7499 40.2499 64.7499 45.4999 59.4999 45.4999 59.4999 52.4999 54.2499 52.4999 54.2499 31.5 64.7499 31.5 64.7499 36.7499M41.9999 36.7499 45.4999 36.7499 45.4999 47.2499 41.9999 47.2499 41.9999 36.7499M24.5 36.7499 28 36.7499 28 40.2499 24.5 40.2499 24.5 36.7499Z" fill="#3B3B3B" fill-rule="nonzero" fill-opacity="1" transform="matrix(1 0 0 1.01191 1862 1053)"/></g></g></g><text fill="#3B3B3B" fill-opacity="1" font-family="Noto Sans SC Medium,Noto Sans SC Medium_MSFontService,sans-serif" font-style="normal" font-variant="normal" font-weight="500" font-stretch="normal" font-size="48" text-anchor="start" direction="ltr" writing-mode="lr-tb" unicode-bidi="normal" text-decoration="none" transform="matrix(1 0 0 1 1984.07 1113)">下载</text><text fill="#3B3B3B" fill-opacity="1" font-family="Noto Sans SC Medium,Noto Sans SC Medium_MSFontService,sans-serif" font-style="normal" font-variant="normal" font-weight="500" font-stretch="normal" font-size="48" text-anchor="start" direction="ltr" writing-mode="lr-tb" unicode-bidi="normal" text-decoration="none" transform="matrix(1 0 0 1 2091.21 1113)">PDF</text></g></g></svg>