<svg width="463" height="142" xmlns="http://www.w3.org/2000/svg" xmlns:xlink="http://www.w3.org/1999/xlink" xml:space="preserve" overflow="hidden"><g transform="translate(-2493 -1026)"><g><path d="M2497 1098C2497 1061 2527 1031 2564 1031L2885 1031C2922 1031 2952 1061 2952 1098L2952 1098C2952 1135 2922 1165 2885 1165L2564 1165C2527 1165 2497 1135 2497 1098Z" fill="#52BBB1" fill-rule="evenodd" fill-opacity="0.901961"/><text fill="#FFFFFF" fill-opacity="1" font-family="Noto Sans SC Medium,Noto Sans SC Medium_MSFontService,sans-serif" font-style="normal" font-variant="normal" font-weight="500" font-stretch="normal" font-size="48" text-anchor="start" direction="ltr" writing-mode="lr-tb" unicode-bidi="normal" text-decoration="none" transform="matrix(1 0 0 1 2677.55 1115)">下载</text><text fill="#FFFFFF" fill-opacity="1" font-family="Noto Sans SC Medium,Noto Sans SC Medium_MSFontService,sans-serif" font-style="normal" font-variant="normal" font-weight="500" font-stretch="normal" font-size="48" text-anchor="start" direction="ltr" writing-mode="lr-tb" unicode-bidi="normal" text-decoration="none" transform="matrix(1 0 0 1 2784.69 1115)">PDF</text><g><g><g><path d="M2577 1074.12C2577 1069.64 2580.64 1066 2585.12 1066L2605.44 1066 2605.44 1082.25C2605.44 1084.5 2607.25 1086.31 2609.5 1086.31L2625.75 1086.31 2625.75 1104.59 2599.34 1104.59C2594.86 1104.59 2591.22 1108.24 2591.22 1112.72L2591.22 1131 2585.12 1131C2580.64 1131 2577 1127.36 2577 1122.88L2577 1074.12ZM2625.75 1082.25 2609.5 1082.25 2609.5 1066 2625.75 1082.25ZM2599.34 1110.69 2603.41 1110.69C2607.33 1110.69 2610.52 1113.87 2610.52 1117.8 2610.52 1121.72 2607.33 1124.91 2603.41 1124.91L2601.38 1124.91 2601.38 1128.97C2601.38 1130.09 2600.46 1131 2599.34 1131 2598.23 1131 2597.31 1130.09 2597.31 1128.97L2597.31 1122.88 2597.31 1112.72C2597.31 1111.6 2598.23 1110.69 2599.34 1110.69ZM2603.41 1120.84C2605.09 1120.84 2606.45 1119.49 2606.45 1117.8 2606.45 1116.11 2605.09 1114.75 2603.41 1114.75L2601.38 1114.75 2601.38 1120.84 2603.41 1120.84ZM2615.59 1110.69 2619.66 1110.69C2623.02 1110.69 2625.75 1113.42 2625.75 1116.78L2625.75 1124.91C2625.75 1128.27 2623.02 1131 2619.66 1131L2615.59 1131C2614.48 1131 2613.56 1130.09 2613.56 1128.97L2613.56 1112.72C2613.56 1111.6 2614.48 1110.69 2615.59 1110.69ZM2619.66 1126.94C2620.77 1126.94 2621.69 1126.02 2621.69 1124.91L2621.69 1116.78C2621.69 1115.66 2620.77 1114.75 2619.66 1114.75L2617.62 1114.75 2617.62 1126.94 2619.66 1126.94ZM2629.81 1112.72C2629.81 1111.6 2630.73 1110.69 2631.84 1110.69L2637.94 1110.69C2639.05 1110.69 2639.97 1111.6 2639.97 1112.72 2639.97 1113.84 2639.05 1114.75 2637.94 1114.75L2633.88 1114.75 2633.88 1118.81 2637.94 1118.81C2639.05 1118.81 2639.97 1119.73 2639.97 1120.84 2639.97 1121.96 2639.05 1122.88 2637.94 1122.88L2633.88 1122.88 2633.88 1128.97C2633.88 1130.09 2632.96 1131 2631.84 1131 2630.73 1131 2629.81 1130.09 2629.81 1128.97L2629.81 1120.84 2629.81 1112.72Z" fill="#FFFFFF" fill-rule="nonzero" fill-opacity="1"/></g></g></g></g></g></svg>