<svg width="555" height="138" xmlns="http://www.w3.org/2000/svg" xmlns:xlink="http://www.w3.org/1999/xlink" xml:space="preserve" overflow="hidden"><g transform="translate(-893 -838)"><g><path d="M897 907C897 869.997 926.997 840 964 840L1378 840C1415 840 1445 869.997 1445 907L1445 907C1445 944.003 1415 974 1378 974L964 974C926.997 974 897 944.003 897 907Z" fill="#52BBB1" fill-rule="evenodd" fill-opacity="1"/><text fill="#3B3B3B" fill-opacity="1" font-family="Noto Sans SC,Noto Sans SC_MSFontService,sans-serif" font-style="normal" font-variant="normal" font-weight="400" font-stretch="normal" font-size="48" text-anchor="start" direction="ltr" writing-mode="lr-tb" unicode-bidi="normal" text-decoration="none" transform="matrix(1 0 0 1 1054.08 924)">下載</text><text fill="#3B3B3B" fill-opacity="1" font-family="Noto Sans SC,Noto Sans SC_MSFontService,sans-serif" font-style="normal" font-variant="normal" font-weight="400" font-stretch="normal" font-size="48" text-anchor="start" direction="ltr" writing-mode="lr-tb" unicode-bidi="normal" text-decoration="none" transform="matrix(1 0 0 1 1161.22 924)">PDF/ePub</text><g><g><g><path d="M977 882.125C977 877.644 980.643 874 985.125 874L1005.44 874 1005.44 890.25C1005.44 892.497 1007.25 894.313 1009.5 894.313L1025.75 894.313 1025.75 912.594 999.344 912.594C994.862 912.594 991.219 916.237 991.219 920.719L991.219 939 985.125 939C980.643 939 977 935.357 977 930.875L977 882.125ZM1025.75 890.25 1009.5 890.25 1009.5 874 1025.75 890.25ZM999.344 918.688 1003.41 918.688C1007.33 918.688 1010.52 921.874 1010.52 925.797 1010.52 929.72 1007.33 932.906 1003.41 932.906L1001.37 932.906 1001.37 936.969C1001.37 938.086 1000.46 939 999.344 939 998.227 939 997.312 938.086 997.312 936.969L997.312 930.875 997.312 920.719C997.312 919.602 998.227 918.688 999.344 918.688ZM1003.41 928.844C1005.09 928.844 1006.45 927.486 1006.45 925.797 1006.45 924.109 1005.09 922.75 1003.41 922.75L1001.37 922.75 1001.37 928.844 1003.41 928.844ZM1015.59 918.688 1019.66 918.688C1023.02 918.688 1025.75 921.417 1025.75 924.781L1025.75 932.906C1025.75 936.271 1023.02 939 1019.66 939L1015.59 939C1014.48 939 1013.56 938.086 1013.56 936.969L1013.56 920.719C1013.56 919.602 1014.48 918.688 1015.59 918.688ZM1019.66 934.938C1020.77 934.938 1021.69 934.024 1021.69 932.906L1021.69 924.781C1021.69 923.664 1020.77 922.75 1019.66 922.75L1017.62 922.75 1017.62 934.938 1019.66 934.938ZM1029.81 920.719C1029.81 919.602 1030.73 918.688 1031.84 918.688L1037.94 918.688C1039.05 918.688 1039.97 919.602 1039.97 920.719 1039.97 921.836 1039.05 922.75 1037.94 922.75L1033.87 922.75 1033.87 926.813 1037.94 926.813C1039.05 926.813 1039.97 927.727 1039.97 928.844 1039.97 929.961 1039.05 930.875 1037.94 930.875L1033.87 930.875 1033.87 936.969C1033.87 938.086 1032.96 939 1031.84 939 1030.73 939 1029.81 938.086 1029.81 936.969L1029.81 928.844 1029.81 920.719Z" fill="#3B3B3B" fill-rule="nonzero" fill-opacity="1"/></g></g></g></g></g></svg>