<svg width="458" height="142" xmlns="http://www.w3.org/2000/svg" xmlns:xlink="http://www.w3.org/1999/xlink" xml:space="preserve" overflow="hidden"><defs><clipPath id="clip0"><rect x="1801" y="1026" width="458" height="142"/></clipPath><clipPath id="clip1"><rect x="1801" y="1026" width="458" height="142"/></clipPath></defs><g clip-path="url(#clip0)" transform="translate(-1801 -1026)"><g clip-path="url(#clip1)"><path d="M1804 1098C1804 1061 1834 1031 1871 1031L2192 1031C2229 1031 2259 1061 2259 1098L2259 1098C2259 1135 2229 1165 2192 1165L1871 1165C1834 1165 1804 1135 1804 1098Z" fill="#52BBB1" fill-rule="evenodd" fill-opacity="0.901961"/><text fill="#3B3B3B" fill-opacity="1" font-family="Noto Sans SC Medium,Noto Sans SC Medium_MSFontService,sans-serif" font-style="normal" font-variant="normal" font-weight="500" font-stretch="normal" font-size="48" text-anchor="start" direction="ltr" writing-mode="lr-tb" unicode-bidi="normal" text-decoration="none" transform="matrix(1 0 0 1 1984.07 1115)">下载</text><text fill="#3B3B3B" fill-opacity="1" font-family="Noto Sans SC Medium,Noto Sans SC Medium_MSFontService,sans-serif" font-style="normal" font-variant="normal" font-weight="500" font-stretch="normal" font-size="48" text-anchor="start" direction="ltr" writing-mode="lr-tb" unicode-bidi="normal" text-decoration="none" transform="matrix(1 0 0 1 2091.21 1115)">PDF</text><g><g><g><path d="M0 7.99999C0 3.5875 3.5875 0 7.99999 0L28 0 28 16C28 18.2125 29.7875 20 32 20L48 20 48 38 22 38C17.5875 38 14 41.5875 14 46L14 63.9999 7.99999 63.9999C3.5875 63.9999 0 60.4124 0 55.9999L0 7.99999ZM48 16 32 16 32 0 48 16ZM22 44 26 44C29.8625 44 33 47.1375 33 50.9999 33 54.8624 29.8625 57.9999 26 57.9999L24 57.9999 24 61.9999C24 63.0999 23.1 63.9999 22 63.9999 20.9 63.9999 20 63.0999 20 61.9999L20 55.9999 20 46C20 44.9 20.9 44 22 44ZM26 53.9999C27.6625 53.9999 29 52.6624 29 50.9999 29 49.3375 27.6625 48 26 48L24 48 24 53.9999 26 53.9999ZM38 44 42 44C45.3125 44 48 46.6875 48 50L48 57.9999C48 61.3124 45.3125 63.9999 42 63.9999L38 63.9999C36.9 63.9999 36 63.0999 36 61.9999L36 46C36 44.9 36.9 44 38 44ZM42 59.9999C43.1 59.9999 44 59.0999 44 57.9999L44 50C44 48.9 43.1 48 42 48L40 48 40 59.9999 42 59.9999ZM51.9999 46C51.9999 44.9 52.8999 44 53.9999 44L59.9999 44C61.0999 44 61.9999 44.9 61.9999 46 61.9999 47.0999 61.0999 48 59.9999 48L55.9999 48 55.9999 51.9999 59.9999 51.9999C61.0999 51.9999 61.9999 52.8999 61.9999 53.9999 61.9999 55.0999 61.0999 55.9999 59.9999 55.9999L55.9999 55.9999 55.9999 61.9999C55.9999 63.0999 55.0999 63.9999 53.9999 63.9999 52.8999 63.9999 51.9999 63.0999 51.9999 61.9999L51.9999 53.9999 51.9999 46Z" fill="#3B3B3B" fill-rule="nonzero" fill-opacity="1" transform="matrix(1 0 0 1.01563 1884 1066)"/></g></g></g></g></g></svg>