<svg width="463" height="146" xmlns="http://www.w3.org/2000/svg" xmlns:xlink="http://www.w3.org/1999/xlink" xml:space="preserve" overflow="hidden"><g transform="translate(-2502 -1022)"><g><path d="M2506.5 1095.5C2506.5 1058.5 2536.5 1028.5 2573.5 1028.5L2894.5 1028.5C2931.5 1028.5 2961.5 1058.5 2961.5 1095.5 2961.5 1132.5 2931.5 1162.5 2894.5 1162.5L2573.5 1162.5C2536.5 1162.5 2506.5 1132.5 2506.5 1095.5Z" stroke="#52BBB1" stroke-width="4.58333" stroke-linecap="butt" stroke-linejoin="miter" stroke-miterlimit="8" stroke-opacity="1" fill="none" fill-rule="evenodd"/><g><g><g><path d="M66.4999 10.5 17.5 10.5C13.65 10.5 10.5 13.65 10.5 17.5L10.5 66.4999C10.5 70.3499 13.65 73.4999 17.5 73.4999L66.4999 73.4999C70.3499 73.4999 73.4999 70.3499 73.4999 66.4999L73.4999 17.5C73.4999 13.65 70.3499 10.5 66.4999 10.5M33.2499 40.2499C33.2499 43.0499 30.8 45.4999 28 45.4999L24.5 45.4999 24.5 52.4999 19.25 52.4999 19.25 31.5 28 31.5C30.8 31.5 33.2499 33.9499 33.2499 36.7499L33.2499 40.2499M50.7499 47.2499C50.7499 50.0499 48.2999 52.4999 45.4999 52.4999L36.7499 52.4999 36.7499 31.5 45.4999 31.5C48.2999 31.5 50.7499 33.9499 50.7499 36.7499L50.7499 47.2499M64.7499 36.7499 59.4999 36.7499 59.4999 40.2499 64.7499 40.2499 64.7499 45.4999 59.4999 45.4999 59.4999 52.4999 54.2499 52.4999 54.2499 31.5 64.7499 31.5 64.7499 36.7499M41.9999 36.7499 45.4999 36.7499 45.4999 47.2499 41.9999 47.2499 41.9999 36.7499M24.5 36.7499 28 36.7499 28 40.2499 24.5 40.2499 24.5 36.7499Z" fill="#52BBB1" fill-rule="nonzero" fill-opacity="1" transform="matrix(1 0 0 1.01191 2564 1053)"/></g></g></g><text fill="#52BBB1" fill-opacity="1" font-family="Noto Sans SC Medium,Noto Sans SC Medium_MSFontService,sans-serif" font-style="normal" font-variant="normal" font-weight="500" font-stretch="normal" font-size="48" text-anchor="start" direction="ltr" writing-mode="lr-tb" unicode-bidi="normal" text-decoration="none" transform="matrix(1 0 0 1 2686.18 1113)">下载</text><text fill="#52BBB1" fill-opacity="1" font-family="Noto Sans SC Medium,Noto Sans SC Medium_MSFontService,sans-serif" font-style="normal" font-variant="normal" font-weight="500" font-stretch="normal" font-size="48" text-anchor="start" direction="ltr" writing-mode="lr-tb" unicode-bidi="normal" text-decoration="none" transform="matrix(1 0 0 1 2793.32 1113)">PDF</text></g></g></svg>