<?xml version="1.0" encoding="UTF-8"?>
<svg id="Layer_2" data-name="Layer 2" xmlns="http://www.w3.org/2000/svg" viewBox="0 0 122.48 59.28">
  <defs>
    <style>
      .cls-1 {
        fill: #2aa996;
      }

      .cls-1, .cls-2 {
        stroke-width: 0px;
      }

      .cls-2 {
        fill: #21c8b8;
      }
    </style>
  </defs>
  <g id="_layer_1" data-name="layer 1">
    <path class="cls-2" d="m5.02,34.2c-1.67,8.36-3.34,16.72-5.02,25.08h5.02c1.67-8.36,3.34-16.72,5.02-25.08h-5.02Z"/>
    <path class="cls-2" d="m25.22,49.25c.33-1.67.67-3.34,1-5.02H9.07c-.33,1.67-.67,3.34-1,5.02h17.16Z"/>
    <path class="cls-2" d="m30.16,54.27c.33-1.67.67-3.34,1-5.02h7.05c.33-1.67.67-3.34,1-5.02h-7.05c.33-1.67.67-3.34,1-5.02h7.05c.33-1.67.67-3.34,1-5.02-4.02,0-8.04,0-12.06,0-1.67,8.36-3.34,16.72-5.02,25.08,4.03,0,8.06,0,12.09,0,.33-1.67.67-3.34,1-5.02h-7.07Z"/>
    <path class="cls-2" d="m93.39,34.2h-16.56s0,0,0,0c-.01.04-.92.05-3.5,0-1.67,8.36-3.34,16.72-5.02,25.08h20.07c1.67-8.36,3.34-16.72,5.02-25.08Zm-19.06,20.07c1-5.02,2.01-10.03,3.01-15.05h10.03c-1,5.02-2.01,10.03-3.01,15.05h-10.03Z"/>
    <path class="cls-2" d="m44.23,54.27h0c1.34-6.69,2.68-13.38,4.01-20.07h-5.02c-1.67,8.36-3.34,16.72-5.02,25.08h4.01c3.02,0,6.04,0,9.06,0,.33-1.67.67-3.34,1-5.02h-8.05Z"/>
    <path class="cls-2" d="m59.29,54.27h0c1.34-6.69,2.68-13.38,4.01-20.07h-5.02c-1.67,8.36-3.34,16.72-5.02,25.08,4.36,0,8.71,0,13.07,0,.33-1.67.67-3.34,1-5.02h-8.05Z"/>
    <path class="cls-1" d="m16.89.07h-5.02c-1,5.02-2.01,10.03-3.01,15.05h5.01c1-5.02,2.01-10.03,3.01-15.05Z"/>
    <path class="cls-1" d="m34.32,33.21c1.14-5.69,2.27-11.38,3.41-17.07H8.65c-1.13,5.69-2.27,11.38-3.4,17.07h29.07Zm-21.64-12.06h19.03c-.07.34-.13.67-.2,1.01H12.48c.07-.34.13-.67.2-1.01Zm-1.21,6.03h19.03c-.07.34-.13.67-.2,1.01H11.27c.07-.34.13-.67.2-1.01Z"/>
    <path class="cls-1" d="m28.93,15.12c1-5.02,2.01-10.03,3.01-15.05h-5.02c-1,5.02-2.01,10.03-3.01,15.05h5.01Z"/>
    <path class="cls-1" d="m24.92,5.09c.33-1.67.67-3.34,1-5.02h-8.03c-.33,1.67-.67,3.34-1,5.02h8.03Z"/>
    <path class="cls-1" d="m121.48,15.04s.5-2.49.5-2.51c.17-.84.33-1.67.5-2.51h-11.33c.66-3.34,1.33-6.68,1.99-10.02h-5.02c-.67,3.34-1.34,6.68-2,10.02h-7.02c-.33,1.67-.67,3.34-1,5.02h7.03s0,0,0,.01h.01c-.07.33-.13.67-.2,1h-7.07c-.33,1.67-.67,3.34-1,5.02h4.25c-2.57,12.74-5.14,25.48-7.7,38.22,6.4,0,12.8,0,19.21,0l5.07-25.08h-5.03c-1.35,6.69-2.71,13.38-4.06,20.07h-9.13c2.22-11.07,4.44-22.13,6.66-33.2h14.1c.33-1.67.67-3.34,1-5.02h-11.28c.07-.34.13-.67.2-1.01h11.33Z"/>
    <path class="cls-1" d="m16.87,6.12c.6,3,1.2,6,1.8,9h4.23c-.6-3-1.2-6-1.8-9h-4.24Z"/>
    <path class="cls-1" d="m97,16.06h-5.02c-1.13,5.69-2.27,11.38-3.4,17.06h5.01c1.13-5.69,2.27-11.38,3.4-17.06Z"/>
    <path class="cls-1" d="m100.2,0h-5.02c-1,5.02-2.01,10.03-3.01,15.05h5.03c1-5.02,2-10.03,3-15.05Z"/>
    <path class="cls-1" d="m39.97,5.09c.33-1.67.67-3.34,1-5.02h-8.03c-.33,1.67-.67,3.34-1,5.02h8.03Z"/>
    <path class="cls-1" d="m31.92,6.12c.6,3,1.2,6,1.8,9h4.23c-.6-3-1.2-6-1.8-9h-4.24Z"/>
  </g>
</svg>