<svg width="458" height="142" xmlns="http://www.w3.org/2000/svg" xmlns:xlink="http://www.w3.org/1999/xlink" xml:space="preserve" overflow="hidden"><g transform="translate(-1952 -838)"><g><path d="M1954 907C1954 869.997 1984 840 2021 840L2342 840C2379 840 2409 869.997 2409 907L2409 907C2409 944.003 2379 974 2342 974L2021 974C1984 974 1954 944.003 1954 907Z" fill="#55AEA6" fill-rule="evenodd" fill-opacity="1"/><text fill="#FFFFFF" fill-opacity="1" font-family="Noto Sans SC,Noto Sans SC_MSFontService,sans-serif" font-style="normal" font-variant="normal" font-weight="400" font-stretch="normal" font-size="48" text-anchor="start" direction="ltr" writing-mode="lr-tb" unicode-bidi="normal" text-decoration="none" transform="matrix(1 0 0 1 2135.72 924)">下载</text><text fill="#FFFFFF" fill-opacity="1" font-family="Noto Sans SC,Noto Sans SC_MSFontService,sans-serif" font-style="normal" font-variant="normal" font-weight="400" font-stretch="normal" font-size="48" text-anchor="start" direction="ltr" writing-mode="lr-tb" unicode-bidi="normal" text-decoration="none" transform="matrix(1 0 0 1 2242.85 924)">PDF</text><g><g><g><path d="M2035 882.125C2035 877.644 2038.64 874 2043.12 874L2063.44 874 2063.44 890.25C2063.44 892.497 2065.25 894.313 2067.5 894.313L2083.75 894.313 2083.75 912.594 2057.34 912.594C2052.86 912.594 2049.22 916.237 2049.22 920.719L2049.22 939 2043.12 939C2038.64 939 2035 935.357 2035 930.875L2035 882.125ZM2083.75 890.25 2067.5 890.25 2067.5 874 2083.75 890.25ZM2057.34 918.688 2061.41 918.688C2065.33 918.688 2068.52 921.874 2068.52 925.797 2068.52 929.72 2065.33 932.906 2061.41 932.906L2059.38 932.906 2059.38 936.969C2059.38 938.086 2058.46 939 2057.34 939 2056.23 939 2055.31 938.086 2055.31 936.969L2055.31 930.875 2055.31 920.719C2055.31 919.602 2056.23 918.688 2057.34 918.688ZM2061.41 928.844C2063.09 928.844 2064.45 927.486 2064.45 925.797 2064.45 924.109 2063.09 922.75 2061.41 922.75L2059.38 922.75 2059.38 928.844 2061.41 928.844ZM2073.59 918.688 2077.66 918.688C2081.02 918.688 2083.75 921.417 2083.75 924.781L2083.75 932.906C2083.75 936.271 2081.02 939 2077.66 939L2073.59 939C2072.48 939 2071.56 938.086 2071.56 936.969L2071.56 920.719C2071.56 919.602 2072.48 918.688 2073.59 918.688ZM2077.66 934.938C2078.77 934.938 2079.69 934.024 2079.69 932.906L2079.69 924.781C2079.69 923.664 2078.77 922.75 2077.66 922.75L2075.62 922.75 2075.62 934.938 2077.66 934.938ZM2087.81 920.719C2087.81 919.602 2088.73 918.688 2089.84 918.688L2095.94 918.688C2097.05 918.688 2097.97 919.602 2097.97 920.719 2097.97 921.836 2097.05 922.75 2095.94 922.75L2091.88 922.75 2091.88 926.813 2095.94 926.813C2097.05 926.813 2097.97 927.727 2097.97 928.844 2097.97 929.961 2097.05 930.875 2095.94 930.875L2091.88 930.875 2091.88 936.969C2091.88 938.086 2090.96 939 2089.84 939 2088.73 939 2087.81 938.086 2087.81 936.969L2087.81 928.844 2087.81 920.719Z" fill="#FFFFFF" fill-rule="nonzero" fill-opacity="1"/></g></g></g></g></g></svg>