<svg width="458" height="142" xmlns="http://www.w3.org/2000/svg" xmlns:xlink="http://www.w3.org/1999/xlink" xml:space="preserve" overflow="hidden"><defs><clipPath id="clip0"><rect x="2135" y="672" width="82" height="65"/></clipPath><clipPath id="clip1"><rect x="2135" y="672" width="82" height="65"/></clipPath><clipPath id="clip2"><rect x="2135" y="672" width="82" height="65"/></clipPath></defs><g transform="translate(-2067 -632)"><g><path d="M2068 704C2068 666.997 2098 637 2135 637L2456 637C2493 637 2523 666.997 2523 704L2523 704C2523 741.003 2493 771 2456 771L2135 771C2098 771 2068 741.003 2068 704Z" fill="#52BBB1" fill-rule="evenodd" fill-opacity="1"/><text fill="#3B3B3B" fill-opacity="1" font-family="Noto Sans SC,Noto Sans SC_MSFontService,sans-serif" font-style="normal" font-variant="normal" font-weight="400" font-stretch="normal" font-size="48" text-anchor="start" direction="ltr" writing-mode="lr-tb" unicode-bidi="normal" text-decoration="none" transform="matrix(1 0 0 1 2251.77 721)">線上閱讀</text><g clip-path="url(#clip0)"><g clip-path="url(#clip1)"><g clip-path="url(#clip2)"><path d="M16.2 0C11.7324 0 8.10001 3.63235 8.10001 8.10001L8.10001 36.4501 2.43 36.4501C1.08844 36.4501 0 37.5385 0 38.8801 0 44.2463 4.35376 48.6001 9.72002 48.6001L40.5001 48.6001 40.5001 36.4501 16.2 36.4501 16.2 8.10001 56.7001 8.10001 56.7001 12.15 64.8001 12.15 64.8001 8.10001C64.8001 3.63235 61.1678 0 56.7001 0L16.2 0ZM64.8001 16.2 50.6251 16.2C47.2712 16.2 44.5501 18.9211 44.5501 22.275L44.5501 58.7251C44.5501 62.079 47.2712 64.8001 50.6251 64.8001L74.9251 64.8001C78.279 64.8001 81.0001 62.079 81.0001 58.7251L81.0001 32.4001 68.8501 32.4001C66.6099 32.4001 64.8001 30.5902 64.8001 28.35L64.8001 16.2ZM68.8501 16.2 68.8501 28.35 81.0001 28.35 68.8501 16.2Z" fill="#3B3B3B" fill-rule="nonzero" fill-opacity="1" transform="matrix(1 0 0 1.00308 2135 672)"/></g></g></g></g></g></svg>