<svg width="458" height="138" xmlns="http://www.w3.org/2000/svg" xmlns:xlink="http://www.w3.org/1999/xlink" xml:space="preserve" overflow="hidden"><g transform="translate(-2067 -838)"><g><path d="M2068 907C2068 869.997 2098 840 2135 840L2456 840C2493 840 2523 869.997 2523 907L2523 907C2523 944.003 2493 974 2456 974L2135 974C2098 974 2068 944.003 2068 907Z" fill="#52BBB1" fill-rule="evenodd" fill-opacity="1"/><text fill="#3B3B3B" fill-opacity="1" font-family="Noto Sans SC,Noto Sans SC_MSFontService,sans-serif" font-style="normal" font-variant="normal" font-weight="400" font-stretch="normal" font-size="48" text-anchor="start" direction="ltr" writing-mode="lr-tb" unicode-bidi="normal" text-decoration="none" transform="matrix(1 0 0 1 2249.48 924)">下載</text><text fill="#3B3B3B" fill-opacity="1" font-family="Noto Sans SC,Noto Sans SC_MSFontService,sans-serif" font-style="normal" font-variant="normal" font-weight="400" font-stretch="normal" font-size="48" text-anchor="start" direction="ltr" writing-mode="lr-tb" unicode-bidi="normal" text-decoration="none" transform="matrix(1 0 0 1 2356.61 924)">PDF</text><g><g><g><path d="M2149 882.125C2149 877.644 2152.64 874 2157.13 874L2177.44 874 2177.44 890.25C2177.44 892.497 2179.25 894.313 2181.5 894.313L2197.75 894.313 2197.75 912.594 2171.34 912.594C2166.86 912.594 2163.22 916.237 2163.22 920.719L2163.22 939 2157.13 939C2152.64 939 2149 935.357 2149 930.875L2149 882.125ZM2197.75 890.25 2181.5 890.25 2181.5 874 2197.75 890.25ZM2171.34 918.688 2175.41 918.688C2179.33 918.688 2182.52 921.874 2182.52 925.797 2182.52 929.72 2179.33 932.906 2175.41 932.906L2173.38 932.906 2173.38 936.969C2173.38 938.086 2172.46 939 2171.34 939 2170.23 939 2169.31 938.086 2169.31 936.969L2169.31 930.875 2169.31 920.719C2169.31 919.602 2170.23 918.688 2171.34 918.688ZM2175.41 928.844C2177.09 928.844 2178.45 927.486 2178.45 925.797 2178.45 924.109 2177.09 922.75 2175.41 922.75L2173.38 922.75 2173.38 928.844 2175.41 928.844ZM2187.59 918.688 2191.66 918.688C2195.02 918.688 2197.75 921.417 2197.75 924.781L2197.75 932.906C2197.75 936.271 2195.02 939 2191.66 939L2187.59 939C2186.48 939 2185.56 938.086 2185.56 936.969L2185.56 920.719C2185.56 919.602 2186.48 918.688 2187.59 918.688ZM2191.66 934.938C2192.77 934.938 2193.69 934.024 2193.69 932.906L2193.69 924.781C2193.69 923.664 2192.77 922.75 2191.66 922.75L2189.63 922.75 2189.63 934.938 2191.66 934.938ZM2201.81 920.719C2201.81 919.602 2202.73 918.688 2203.84 918.688L2209.94 918.688C2211.05 918.688 2211.97 919.602 2211.97 920.719 2211.97 921.836 2211.05 922.75 2209.94 922.75L2205.88 922.75 2205.88 926.813 2209.94 926.813C2211.05 926.813 2211.97 927.727 2211.97 928.844 2211.97 929.961 2211.05 930.875 2209.94 930.875L2205.88 930.875 2205.88 936.969C2205.88 938.086 2204.96 939 2203.84 939 2202.73 939 2201.81 938.086 2201.81 936.969L2201.81 928.844 2201.81 920.719Z" fill="#3B3B3B" fill-rule="nonzero" fill-opacity="1"/></g></g></g></g></g></svg>