<svg width="459" height="138" xmlns="http://www.w3.org/2000/svg" xmlns:xlink="http://www.w3.org/1999/xlink" xml:space="preserve" overflow="hidden"><defs><clipPath id="clip0"><rect x="2653" y="838" width="459" height="138"/></clipPath><clipPath id="clip1"><rect x="2653" y="838" width="459" height="138"/></clipPath></defs><g clip-path="url(#clip0)" transform="translate(-2653 -838)"><g clip-path="url(#clip1)"><path d="M2658 907C2658 869.997 2688 840 2725 840L3045 840C3082 840 3112 869.997 3112 907L3112 907C3112 944.004 3082 974.001 3045 974.001L2725 974C2688 974 2658 944.003 2658 907Z" fill="#55AEA6" fill-rule="evenodd" fill-opacity="1"/><text fill="#FFFFFF" fill-opacity="1" font-family="Noto Sans SC,Noto Sans SC_MSFontService,sans-serif" font-style="normal" font-variant="normal" font-weight="400" font-stretch="normal" font-size="48" text-anchor="start" direction="ltr" writing-mode="lr-tb" unicode-bidi="normal" text-decoration="none" transform="matrix(1 0 0 1 2838.91 924)">下載</text><text fill="#FFFFFF" fill-opacity="1" font-family="Noto Sans SC,Noto Sans SC_MSFontService,sans-serif" font-style="normal" font-variant="normal" font-weight="400" font-stretch="normal" font-size="48" text-anchor="start" direction="ltr" writing-mode="lr-tb" unicode-bidi="normal" text-decoration="none" transform="matrix(1 0 0 1 2946.04 924)">PDF</text><g><g><g><path d="M2738 882.125C2738 877.644 2741.64 874 2746.12 874L2766.44 874 2766.44 890.25C2766.44 892.497 2768.25 894.313 2770.5 894.313L2786.75 894.313 2786.75 912.594 2760.34 912.594C2755.86 912.594 2752.22 916.237 2752.22 920.719L2752.22 939 2746.12 939C2741.64 939 2738 935.357 2738 930.875L2738 882.125ZM2786.75 890.25 2770.5 890.25 2770.5 874 2786.75 890.25ZM2760.34 918.688 2764.41 918.688C2768.33 918.688 2771.52 921.874 2771.52 925.797 2771.52 929.72 2768.33 932.906 2764.41 932.906L2762.38 932.906 2762.38 936.969C2762.38 938.086 2761.46 939 2760.34 939 2759.23 939 2758.31 938.086 2758.31 936.969L2758.31 930.875 2758.31 920.719C2758.31 919.602 2759.23 918.688 2760.34 918.688ZM2764.41 928.844C2766.09 928.844 2767.45 927.486 2767.45 925.797 2767.45 924.109 2766.09 922.75 2764.41 922.75L2762.38 922.75 2762.38 928.844 2764.41 928.844ZM2776.59 918.688 2780.66 918.688C2784.02 918.688 2786.75 921.417 2786.75 924.781L2786.75 932.906C2786.75 936.271 2784.02 939 2780.66 939L2776.59 939C2775.48 939 2774.56 938.086 2774.56 936.969L2774.56 920.719C2774.56 919.602 2775.48 918.688 2776.59 918.688ZM2780.66 934.938C2781.77 934.938 2782.69 934.024 2782.69 932.906L2782.69 924.781C2782.69 923.664 2781.77 922.75 2780.66 922.75L2778.62 922.75 2778.62 934.938 2780.66 934.938ZM2790.81 920.719C2790.81 919.602 2791.73 918.688 2792.84 918.688L2798.94 918.688C2800.05 918.688 2800.97 919.602 2800.97 920.719 2800.97 921.836 2800.05 922.75 2798.94 922.75L2794.88 922.75 2794.88 926.813 2798.94 926.813C2800.05 926.813 2800.97 927.727 2800.97 928.844 2800.97 929.961 2800.05 930.875 2798.94 930.875L2794.88 930.875 2794.88 936.969C2794.88 938.086 2793.96 939 2792.84 939 2791.73 939 2790.81 938.086 2790.81 936.969L2790.81 928.844 2790.81 920.719Z" fill="#FFFFFF" fill-rule="nonzero" fill-opacity="1"/></g></g></g></g></g></svg>