<svg width="458" height="142" xmlns="http://www.w3.org/2000/svg" xmlns:xlink="http://www.w3.org/1999/xlink" xml:space="preserve" overflow="hidden"><defs><clipPath id="clip0"><rect x="1292" y="672" width="83" height="65"/></clipPath><clipPath id="clip1"><rect x="1292" y="672" width="83" height="65"/></clipPath><clipPath id="clip2"><rect x="1292" y="672" width="83" height="65"/></clipPath></defs><g transform="translate(-1223 -632)"><g><path d="M1227 704C1227 666.997 1257 637 1294 637L1614 637C1651 637 1681 666.997 1681 704L1681 704C1681 741.003 1651 771 1614 771L1294 771C1257 771 1227 741.003 1227 704Z" fill="#52BBB1" fill-rule="evenodd" fill-opacity="1"/><text fill="#3B3B3B" fill-opacity="1" font-family="Noto Sans SC,Noto Sans SC_MSFontService,sans-serif" font-style="normal" font-variant="normal" font-weight="400" font-stretch="normal" font-size="48" text-anchor="start" direction="ltr" writing-mode="lr-tb" unicode-bidi="normal" text-decoration="none" transform="matrix(1 0 0 1 1410.27 721)">在线阅读</text><g clip-path="url(#clip0)"><g clip-path="url(#clip1)"><g clip-path="url(#clip2)"><path d="M16.25 0C11.7685 0 8.125 3.64355 8.125 8.125L8.125 36.5625 2.4375 36.5625C1.0918 36.5625 0 37.6543 0 39 0 44.3828 4.36719 48.75 9.75 48.75L40.625 48.75 40.625 36.5625 16.25 36.5625 16.25 8.125 56.875 8.125 56.875 12.1875 65 12.1875 65 8.125C65 3.64355 61.3564 0 56.875 0L16.25 0ZM65 16.25 50.7812 16.25C47.417 16.25 44.6875 18.9795 44.6875 22.3437L44.6875 58.9062C44.6875 62.2705 47.417 65 50.7812 65L75.1562 65C78.5205 65 81.25 62.2705 81.25 58.9062L81.25 32.5 69.0625 32.5C66.8154 32.5 65 30.6846 65 28.4375L65 16.25ZM69.0625 16.25 69.0625 28.4375 81.25 28.4375 69.0625 16.25Z" fill="#3B3B3B" fill-rule="nonzero" fill-opacity="1" transform="matrix(1.00923 0 0 1 1293 672)"/></g></g></g></g></g></svg>